# xmcd
#
# Track frame offsets: 
#        150
#        22040
#        43100
#        64330
#        84310
#        100545
#        131205
#        149517
#        179695
#
# Disc length: 2783 seconds
#
# Revision: 4
# Processed by: cddbd v1.5.2PL0 Copyright (c) Steve Scherf et al.
# Submitted via: ExactAudioCopy v0.99pb5
#
DISCID=820add09
DTITLE=Carmel - Good News
DYEAR=1992
DGENRE=Pop
TTITLE0=Java
TTITLE1=You're All I Need
TTITLE2=Heaven
TTITLE3=Angel
TTITLE4=Letter To Margaret
TTITLE5=You're On My Mind
TTITLE6=Circle Line
TTITLE7=Good News
TTITLE8=Chasin' Rainbows
EXTD=
EXTT0=
EXTT1=
EXTT2=
EXTT3=
EXTT4=
EXTT5=
EXTT6=
EXTT7=
EXTT8=
PLAYORDER=
